<svg xmlns="http://www.w3.org/2000/svg" xmlns:xlink="http://www.w3.org/1999/xlink" width="212" height="104" viewBox="0 0 212 104"><defs><style>.a{fill:#6dbfe0;}.b{clip-path:url(#a);}.c{clip-path:url(#b);}.d{clip-path:url(#c);}</style><clipPath id="a"><rect class="a" width="212" height="104" transform="translate(0 0)"/></clipPath><clipPath id="b"><rect class="a" width="211" height="103.019"/></clipPath><clipPath id="c"><rect class="a" width="699" height="346" transform="translate(0 0.328)"/></clipPath></defs><g transform="translate(-304.785 -177.15)"><g class="b" transform="translate(304.785 177.15)"><g transform="translate(0.406 0.765)"><g class="c"><g transform="translate(-61.406 -54.093)"><g class="d"><g transform="translate(61 53.328)"><g class="b"><path class="a" d="M401.864,467.378l-.694-.873L283.077,318.294l1.439-1.685.7.873L403.3,465.694Zm-16,0-.694-.873L267.077,318.294l1.439-1.685.7.873L387.3,465.694Zm-14,0-.694-.873L253.077,318.294l1.439-1.685.695.873L373.3,465.694Zm48-14.544-.694-.873L301.077,303.75l1.439-1.685.7.873L421.3,451.15Zm-14,0-.694-.873L287.077,303.75l1.439-1.685.7.873L407.3,451.15Zm69.466-6.141-.694-.873L287.077,210.427l1.439-1.685.7.873L476.769,445.008Zm-16,0-.694-.873L271.077,210.427l1.439-1.685.7.873L460.769,445.008Zm-14,0-.694-.873L257.077,210.427l1.439-1.685.7.873L446.769,445.008Zm382.893-11.651-.7-.873L626.078,181.339l1.438-1.683.7.871,201.45,252.831Zm-16,0-.7-.873L610.078,181.339l1.438-1.683.7.871,201.45,252.831Zm-14,0-.7-.873L596.078,181.339l1.438-1.683.7.871,201.45,252.831Zm-62,0-.7-.873L534.077,181.339l1.439-1.683,202.146,253.7Zm-16,0-.7-.873L518.077,181.339l1.439-1.683,202.146,253.7Zm-14,0-.7-.873L504.077,181.339l1.439-1.683,202.146,253.7Zm-60,0-.7-.873L444.077,181.339l1.439-1.683,202.146,253.7Zm-16,0-.7-.873L428.077,181.339l1.439-1.683,202.146,253.7Zm-14,0-.7-.873L414.077,181.339l1.439-1.683,202.146,253.7Zm-61,0-202.146-253.7,1.439-1.683,202.146,253.7Zm-16,0-202.146-253.7,1.439-1.683,202.146,253.7Zm-14,0-202.146-253.7,1.439-1.683,202.146,253.7Zm-31.893-2.893-.694-.873L305.077,195.883l1.439-1.683L494.769,430.465Zm-14,0-.694-.873L291.077,195.883l1.439-1.683L480.769,430.465Zm-62.466-2.343-.694-.873L298.077,280.722l1.439-1.685.7.873L418.3,428.122Zm491.359-6.884-.7-.873L706.078,169.219l1.438-1.683.7.871,201.45,252.831Zm-16,0-.7-.873L690.078,169.219l1.438-1.683.7.871,201.45,252.831Zm-14,0-.7-.873L676.078,169.219l1.438-1.683.7.871,201.45,252.831ZM499.33,421.241l-.694-.873L311.077,184.975l1.439-1.683L500.769,419.557Zm346.893-.743-.7-.873L644.078,166.8l1.438-1.683.7.871,201.45,252.831Zm-14,0-.7-.873L630.078,166.8l1.438-1.683.7.871,201.45,252.831Zm-78,0-.7-.873L552.077,166.8l1.439-1.683,202.146,253.7Zm-14,0-.7-.873L538.077,166.8l1.439-1.683,202.146,253.7Zm-76,0-.7-.873L462.077,166.8l1.439-1.683,202.146,253.7Zm-14,0-.7-.873L448.077,166.8l1.439-1.683,202.146,253.7Zm-77,0-.7-.873L371.077,166.8l1.439-1.683,202.146,253.7Zm-14,0L357.077,166.8l1.439-1.683,202.146,253.7Zm293-10.908-.7-.873L650.078,155.887l1.438-1.683.7.871,201.45,252.831Zm-92,0-.7-.873L558.077,155.887l1.439-1.683,202.146,253.7Zm-90,0-.7-.873L468.077,155.887l1.439-1.683,202.146,253.7Zm-91,0-.7-.873L377.077,155.887l1.439-1.683,202.146,253.7Zm347-1.212-.7-.873L724.078,154.675l1.438-1.683.7.871,201.45,252.831Zm-14,0-.7-.873L710.078,154.675l1.438-1.683.7.871,201.45,252.831Zm20-10.908-.7-.873L730.078,143.767l1.438-1.683.7.871,201.45,252.831Z" transform="translate(-304.785 -184.584)"/></g></g></g></g></g></g></g></g></svg>