<svg xmlns="http://www.w3.org/2000/svg" xmlns:xlink="http://www.w3.org/1999/xlink" width="212" height="86" viewBox="0 0 212 86"><defs><style>.a{fill:#dfdfdf;}.b{clip-path:url(#a);}.c{clip-path:url(#b);}.d{clip-path:url(#c);}</style><clipPath id="a"><rect class="a" width="212" height="86" transform="translate(304.785 177.15)"/></clipPath><clipPath id="b"><rect class="a" width="211" height="85" transform="translate(305.19 177.782)"/></clipPath><clipPath id="c"><rect class="a" width="699" height="286" transform="translate(243.785 133.15)"/></clipPath></defs><g transform="translate(-304.785 -177.15)"><g class="b"><g class="c"><g class="d"><g class="b"><path class="a" d="M401.864,410.481l-.694-.72L283.077,287.473l1.439-1.39.7.72L403.3,409.091Zm-16,0-.694-.72L267.077,287.473l1.439-1.39.7.72L387.3,409.091Zm-14,0-.694-.72L253.077,287.473l1.439-1.39.695.72L373.3,409.091Zm48-12-.694-.72L301.077,275.473l1.439-1.39.7.72L421.3,397.091Zm-14,0-.694-.72L287.077,275.473l1.439-1.39.7.72L407.3,397.091Zm69.466-5.067-.694-.72L287.077,198.473l1.439-1.39.7.72L476.769,392.024Zm-16,0-.694-.72L271.077,198.473l1.439-1.39.7.72L460.769,392.024Zm-14,0-.694-.72L257.077,198.473l1.439-1.39.7.72L446.769,392.024ZM828.223,383.8l-.7-.72L626.078,174.473l1.438-1.389.7.719,201.45,208.608Zm-16,0-.7-.72L610.078,174.473l1.438-1.389.7.719,201.45,208.608Zm-14,0-.7-.72L596.078,174.473l1.438-1.389.7.719,201.45,208.608Zm-62,0-.7-.72L534.077,174.473l1.439-1.389L737.662,382.411Zm-16,0-.7-.72L518.077,174.473l1.439-1.389L721.662,382.411Zm-14,0-.7-.72L504.077,174.473l1.439-1.389L707.662,382.411Zm-60,0-.7-.72L444.077,174.473l1.439-1.389L647.662,382.411Zm-16,0-.7-.72L428.077,174.473l1.439-1.389L631.662,382.411Zm-14,0-.7-.72L414.077,174.473l1.439-1.389L617.662,382.411Zm-61,0L353.077,174.473l1.439-1.389L556.662,382.411Zm-16,0L337.077,174.473l1.439-1.389L540.662,382.411Zm-14,0L323.077,174.473l1.439-1.389L526.662,382.411Zm-31.893-2.387-.694-.72L305.077,186.473l1.439-1.389,188.253,194.94Zm-14,0-.694-.72L291.077,186.473l1.439-1.389,188.253,194.94Zm-62.466-1.933-.694-.72L298.077,256.473l1.439-1.39.7.72L418.3,378.091Zm491.359-5.68-.7-.72L706.078,164.473l1.438-1.389.7.719,201.45,208.608Zm-16,0-.7-.72L690.078,164.473l1.438-1.389.7.719,201.45,208.608Zm-14,0-.7-.72L676.078,164.473l1.438-1.389.7.719,201.45,208.608ZM499.33,372.414l-.694-.72L311.077,177.473l1.439-1.389,188.253,194.94Zm346.893-.613-.7-.72L644.078,162.473l1.438-1.389.7.719,201.45,208.608Zm-14,0-.7-.72L630.078,162.473l1.438-1.389.7.719,201.45,208.608Zm-78,0-.7-.72L552.077,162.473l1.439-1.389L755.662,370.411Zm-14,0-.7-.72L538.077,162.473l1.439-1.389L741.662,370.411Zm-76,0-.7-.72L462.077,162.473l1.439-1.389L665.662,370.411Zm-14,0-.7-.72L448.077,162.473l1.439-1.389L651.662,370.411Zm-77,0-.7-.72L371.077,162.473l1.439-1.389L574.662,370.411Zm-14,0L357.077,162.473l1.439-1.389L560.662,370.411Zm293-9-.7-.72L650.078,153.473l1.438-1.389.7.719,201.45,208.608Zm-92,0-.7-.72L558.077,153.473l1.439-1.389L761.662,361.411Zm-90,0-.7-.72L468.077,153.473l1.439-1.389L671.662,361.411Zm-91,0-.7-.72L377.077,153.473l1.439-1.389L580.662,361.411Zm347-1-.7-.72L724.078,152.473l1.438-1.389.7.719,201.45,208.608Zm-14,0-.7-.72L710.078,152.473l1.438-1.389.7.719,201.45,208.608Zm20-9-.7-.72L730.078,143.473l1.438-1.389.7.719,201.45,208.608Z"/></g></g></g></g></g></svg>