<svg xmlns="http://www.w3.org/2000/svg" width="362" height="74" viewBox="0 0 362 74"><g transform="translate(-445.938 -785.905)"><path d="M480.2,844.2H465.381l-19.443-53.328h15.775l11.147,39.712h.311l11.458-39.712h15.126Z" transform="translate(0 13.959)"/><path d="M507.329,835.234c0,6.377,1.189,7.819,3.459,8.5v1.695H494.951c-.762-1.135-1.24-4.023-1.438-6.2a21.988,21.988,0,0,1-17.384,7.909c-8.126,0-16.424-4.415-16.424-15.561s6.689-15.922,15.608-17.189l12.895-1.908c2.231-.311,4.94-1.267,4.94-4.256,0-5.985-5.728-6.44-9.456-6.44-7,0-8.3,3.929-8.6,7.333H461.368c1.582-15.887,13.07-18.674,24.072-18.674,7.648,0,21.639,2.456,21.639,15.666Zm-13.56-15.6c-2.27,1.073-4.092,2.114-9.965,2.876-5.9.735-9.693,2.378-9.693,8.278-.167,3.416,2.328,6.7,5.744,6.7h.649c6.378,0,13.264-4.446,13.264-10.909Z" transform="translate(39.738 12.732)"/><rect width="14.491" height="72.251" transform="translate(555.374 785.905)"/><path d="M500.3,801.744h8.469V811.9H500.83v28.963c0,3-.357,3.765,5.375,3.765h2.569v11.288h-8.185c-12.277,0-14.508-4.751-14.508-11.768V811.9h-6.809V801.744h6.809V787.073h14.2Z" transform="translate(96.6 3.372)"/><path d="M538.868,829.43c-3.836,13.614-14.675,17.438-23.9,17.438-15.126,0-26.754-7.058-26.754-29.21,0-6.549,2.406-27.177,25.969-27.177,10.668,0,25.518,5.165,25.518,29.688v2.452H502.406c.311,4.54,1.271,12.887,12.588,12.887,3.98,0,8.126-1.543,9.257-6.078Zm-14.026-15.888c-.789-9.074-6.545-11.313-11.006-11.313s-10.186,4.508-11.146,11.313Z" transform="translate(122.544 12.842)"/><path d="M551.886,825.925c-.482,5.589-4.768,21.025-24.523,21.025s-25-15.5-25-26.781c0-17.357,7.648-29.649,25.821-29.649,8.608,0,22.634,3.622,23.9,20.641H537.747c-.649-3.4-2.709-9.075-8.748-9.075h-.793c-8.915,0-11.146,9.055-11.146,15.744s.171,17.454,10.835,17.454c7.337,0,9.708-6.824,9.708-9.366Z" transform="translate(163.543 12.955)"/><path d="M565.968,858.156h-14.15V826.146c0-3.959-.323-10.557-9.269-10.557-6.378,0-11.154,4.238-11.154,12.351v30.215H516.642V785.905h14.753V811.87h.144c1.749-4.516,7.959-8.306,15.608-8.306,10.524,0,18.79,6.055,18.79,17.791Z" transform="translate(205.062 0)"/><rect width="28.366" height="10.212" transform="translate(779.571 847.944)"/></g></svg>