<svg xmlns="http://www.w3.org/2000/svg" width="190" height="40" viewBox="0 0 190 40"><defs><style>.light-svg{fill:#fff;}</style></defs><g transform="translate(-445.938 -785.905)"><path class="light-svg" d="M464.323,819.487h-7.951l-10.434-28.619H454.4l5.982,21.312h.167l6.149-21.312h8.117Z" transform="translate(0 5.479)"/><path class="light-svg" d="M485.263,814.48c0,3.422.638,4.2,1.856,4.559v.909h-8.5a9.216,9.216,0,0,1-.772-3.325,11.8,11.8,0,0,1-9.329,4.245c-4.361,0-8.814-2.369-8.814-8.351s3.589-8.545,8.376-9.225l6.92-1.024c1.2-.167,2.651-.68,2.651-2.284,0-3.212-3.074-3.456-5.074-3.456-3.756,0-4.453,2.109-4.618,3.936H460.6c.849-8.526,7.014-10.022,12.919-10.022,4.1,0,11.613,1.318,11.613,8.407Zm-7.277-8.374a14.093,14.093,0,0,1-5.348,1.543c-3.164.394-5.2,1.276-5.2,4.442a3.313,3.313,0,0,0,3.083,3.594h.348c3.422,0,7.118-2.386,7.118-5.854Z" transform="translate(14.787 5.018)"/><rect class="light-svg" width="7.777" height="39.061" transform="translate(503.323 785.905)"/><path class="light-svg" d="M490.559,795.008H495.1V800.5h-4.263v15.664c0,1.624-.192,2.036,2.884,2.036H495.1v6.1h-4.393c-6.588,0-7.786-2.569-7.786-6.364V800.5h-3.654v-5.494h3.654v-7.934h7.619Z" transform="translate(34.727 1.268)"/><path class="light-svg" d="M515.4,811.383c-2.059,7.306-7.875,9.358-12.827,9.358-8.117,0-14.358-3.788-14.358-15.676,0-3.514,1.291-14.585,13.936-14.585,5.725,0,13.694,2.772,13.694,15.932v1.316H495.83c.167,2.436.682,6.916,6.755,6.916,2.136,0,4.361-.828,4.968-3.262Zm-7.527-8.526c-.423-4.87-3.512-6.071-5.907-6.071s-5.467,2.419-5.982,6.071Z" transform="translate(43.91 5.059)"/><path class="light-svg" d="M528.937,809.52c-.258,3-2.559,11.283-13.16,11.283s-13.419-8.315-13.419-14.372c0-9.315,4.1-15.912,13.857-15.912,4.62,0,12.147,1.944,12.827,11.077H521.35c-.348-1.827-1.454-4.87-4.695-4.87h-.425c-4.784,0-5.982,4.859-5.982,8.449s.092,9.366,5.815,9.366a5.266,5.266,0,0,0,5.21-5.026Z" transform="translate(58.617 5.101)"/><path class="light-svg" d="M543.113,824.966h-7.594V807.661c0-2.141-.173-5.707-4.974-5.707-3.423,0-5.986,2.291-5.986,6.677v16.335h-7.917V785.905h7.917v14.037h.077c.939-2.441,4.272-4.49,8.376-4.49,5.648,0,10.084,3.274,10.084,9.618Z" transform="translate(73.018 0)"/><rect class="light-svg" width="15.223" height="5.48" transform="translate(620.715 819.486)"/></g></svg>