<svg xmlns="http://www.w3.org/2000/svg" width="176" height="36" viewBox="0 0 176 36"><g transform="translate(-445.938 -785.905)"><path d="M462.64,816.867h-7.223l-9.479-26h7.691l5.434,19.361h.152l5.586-19.361h7.374Z" transform="translate(0 4.185)"/><path d="M482.923,812.28c0,3.109.58,3.812,1.686,4.142v.826h-7.721a8.371,8.371,0,0,1-.7-3.02,10.72,10.72,0,0,1-8.475,3.856c-3.962,0-8.007-2.152-8.007-7.587s3.261-7.763,7.609-8.38l6.287-.93c1.088-.151,2.408-.618,2.408-2.075,0-2.918-2.793-3.139-4.61-3.139-3.412,0-4.045,1.916-4.195,3.575h-6.688c.771-7.746,6.372-9.1,11.736-9.1,3.729,0,10.55,1.2,10.55,7.638Zm-6.611-7.607a12.8,12.8,0,0,1-4.858,1.4c-2.874.358-4.725,1.16-4.725,4.036a3.009,3.009,0,0,0,2.8,3.265h.316c3.109,0,6.467-2.168,6.467-5.318Z" transform="translate(12.318 3.805)"/><rect width="7.065" height="35.147" transform="translate(499.138 785.905)"/><path d="M489.526,794.209h4.129v4.941h-3.873v14.088c0,1.461-.174,1.831,2.62,1.831h1.252v5.491h-3.99c-5.985,0-7.073-2.311-7.073-5.724V799.15h-3.32v-4.941h3.32v-7.136h6.921Z" transform="translate(29.822 1.045)"/><path d="M512.909,809.47c-1.87,6.637-7.154,8.5-11.653,8.5-7.374,0-13.043-3.441-13.043-14.241,0-3.193,1.173-13.25,12.66-13.25,5.2,0,12.441,2.518,12.441,14.474v1.2H495.132c.152,2.213.62,6.283,6.137,6.283,1.94,0,3.962-.752,4.513-2.963Zm-6.838-7.746c-.385-4.424-3.191-5.515-5.366-5.515s-4.966,2.2-5.434,5.515Z" transform="translate(37.821 3.839)"/><path d="M526.5,807.781c-.235,2.725-2.325,10.25-11.956,10.25s-12.191-7.554-12.191-13.057c0-8.462,3.729-14.455,12.588-14.455,4.2,0,11.035,1.766,11.652,10.063h-6.988c-.316-1.66-1.321-4.424-4.265-4.424h-.387c-4.346,0-5.434,4.415-5.434,7.676s.083,8.509,5.283,8.509a4.784,4.784,0,0,0,4.733-4.566Z" transform="translate(50.476 3.874)"/><path d="M540.69,821.052h-6.9V805.481c0-1.926-.157-5.135-4.519-5.135-3.109,0-5.438,2.062-5.438,6.008v14.7h-7.192V785.905h7.192v12.631h.07c.853-2.2,3.88-4.04,7.609-4.04,5.131,0,9.161,2.946,9.161,8.655Z" transform="translate(63.254 0)"/><rect width="13.829" height="4.979" transform="translate(608.108 816.074)"/></g></svg>