<svg xmlns="http://www.w3.org/2000/svg" width="116" height="24" viewBox="0 0 116 24"><defs><style>.a{fill:#fff;}</style></defs><g transform="translate(-445.938 -785.905)"><path class="a" d="M457.109,808.257h-4.831l-6.34-17.389h5.144l3.635,12.949h.1l3.736-12.949h4.932Z" transform="translate(0 1.077)"/><path class="a" d="M475.234,805.048c0,2.08.388,2.55,1.128,2.77v.553H471.2a5.6,5.6,0,0,1-.469-2.02,7.17,7.17,0,0,1-5.668,2.579c-2.65,0-5.355-1.44-5.355-5.074s2.181-5.192,5.089-5.605l4.2-.622c.727-.1,1.611-.413,1.611-1.388,0-1.952-1.868-2.1-3.083-2.1-2.282,0-2.706,1.281-2.806,2.391h-4.473c.516-5.181,4.262-6.089,7.849-6.089,2.494,0,7.056.8,7.056,5.108Zm-4.422-5.088a8.563,8.563,0,0,1-3.249.938c-1.922.24-3.161.776-3.161,2.7a2.013,2.013,0,0,0,1.873,2.184h.212c2.08,0,4.325-1.45,4.325-3.557Z" transform="translate(3.68 0.963)"/><rect class="a" width="4.725" height="23.43" transform="translate(480.98 785.905)"/><path class="a" d="M486.13,791.829h2.761v3.294H486.3v9.39c0,.974-.117,1.221,1.753,1.221h.838v3.66h-2.669c-4,0-4.731-1.54-4.731-3.815V795.123h-2.22v-3.294h2.22v-4.756h4.629Z" transform="translate(8.237 0.312)"/><path class="a" d="M504.731,803.182c-1.251,4.439-4.785,5.686-7.794,5.686-4.932,0-8.724-2.3-8.724-9.525,0-2.135.784-8.862,8.468-8.862,3.479,0,8.321,1.684,8.321,9.681v.8H492.841c.1,1.48.414,4.2,4.1,4.2a2.817,2.817,0,0,0,3.019-1.982ZM500.157,798c-.257-2.959-2.134-3.689-3.589-3.689A4.179,4.179,0,0,0,492.934,798Z" transform="translate(10.386 0.974)"/><path class="a" d="M518.508,802.065c-.157,1.822-1.555,6.856-8,6.856s-8.154-5.053-8.154-8.733c0-5.66,2.494-9.668,8.42-9.668,2.807,0,7.381,1.181,7.794,6.731H513.9c-.212-1.11-.883-2.959-2.853-2.959h-.259c-2.907,0-3.635,2.953-3.635,5.134s.056,5.691,3.533,5.691a3.2,3.2,0,0,0,3.166-3.054Z" transform="translate(13.867 0.984)"/><path class="a" d="M532.726,809.335h-4.614v-10.38c0-1.284-.105-3.423-3.022-3.423-2.08,0-3.637,1.374-3.637,4.005v9.8h-4.81V785.905h4.81v8.42h.047c.57-1.464,2.6-2.693,5.089-2.693,3.432,0,6.127,1.964,6.127,5.769Z" transform="translate(17.177 0)"/><rect class="a" width="9.25" height="3.33" transform="translate(552.688 806.005)"/></g></svg>