<svg xmlns="http://www.w3.org/2000/svg" xmlns:xlink="http://www.w3.org/1999/xlink" width="24" height="24" viewBox="0 0 24 24"><defs><style>.a{clip-path:url(#a);}</style><clipPath id="a"><path d="M8,21.93a8.009,8.009,0,0,1-8-8v-4H16v4A8.009,8.009,0,0,1,8,21.93Zm8-14H9V0a8,8,0,0,1,7,7.929Zm-9,0H0A8,8,0,0,1,7,0V7.929Z" transform="translate(4 1.07)"/></clipPath></defs><path d="M8,21.93a8.009,8.009,0,0,1-8-8v-4H16v4A8.009,8.009,0,0,1,8,21.93Zm8-14H9V0a8,8,0,0,1,7,7.929Zm-9,0H0A8,8,0,0,1,7,0V7.929Z" transform="translate(4 1.07)"/></svg>